<svg width="80" height="88" viewBox="0 0 80 88" fill="none" xmlns="http://www.w3.org/2000/svg">
<path d="M58.096 15.4369C61.0596 15.4369 63.3986 13.2477 63.3986 10.5408C63.3986 7.85722 61.0596 5.67188 58.096 5.67188C55.1582 5.67188 52.7638 7.85722 52.7638 10.5408C52.7638 13.2477 55.1582 15.4369 58.096 15.4369ZM55.112 56.4997C56.4025 56.4997 57.4236 55.567 57.4236 54.4134V37.913C57.4236 37.5797 57.7289 37.3005 58.096 37.3005C58.4889 37.3005 58.7668 37.5797 58.7668 37.913V54.4134C58.7668 55.567 59.7876 56.4997 61.0802 56.4997C62.3434 56.4997 63.3919 55.567 63.3919 54.4134V27.506C63.3919 27.1707 63.6954 26.8953 64.0603 26.8953C64.4529 26.8953 64.7564 27.1707 64.7564 27.506V36.2999C64.7564 37.372 65.6606 38.198 66.8343 38.198C67.9762 38.198 68.9082 37.372 68.9082 36.2999V26.4938C68.9082 21.5687 64.9536 18.2353 59.6412 18.2353H56.5489C51.2365 18.2353 47.2819 21.5687 47.2819 26.4938V36.2999C47.2819 37.372 48.2415 38.198 49.3576 38.198C50.4996 38.198 51.4593 37.372 51.4593 36.2999V27.506C51.4593 27.1707 51.735 26.8953 52.1277 26.8953C52.4947 26.8953 52.7982 27.1707 52.7982 27.506V54.4134C52.7982 55.567 53.8214 56.4997 55.112 56.4997Z" fill="white"/>
<path d="M37.4445 61.6974C37.8697 61.6974 38.1914 61.4075 38.1914 61.0444V1.17851C38.1914 0.815226 37.8697 0.5 37.4445 0.5C37.0467 0.5 36.7253 0.815226 36.7253 1.17851V61.0444C36.7253 61.4075 37.0467 61.6974 37.4445 61.6974Z" fill="white"/>
<path d="M14.9134 15.4369C17.8512 15.4369 20.2437 13.2477 20.2437 10.5408C20.2437 7.85722 17.8512 5.67188 14.9134 5.67188C11.95 5.67188 9.61078 7.85722 9.61078 10.5408C9.61078 13.2477 11.95 15.4369 14.9134 15.4369ZM11.9313 56.4997C13.2218 56.4997 14.2408 55.567 14.2408 54.4134V45.0349C14.2408 44.6996 14.5207 44.4221 14.9134 44.4221C15.2784 44.4221 15.5839 44.6996 15.5839 45.0349V54.4134C15.5839 55.567 16.6049 56.4997 17.8955 56.4997C19.1585 56.4997 20.2092 55.567 20.2092 54.4134V45.0349H24.7476C25.5959 45.0349 26.0563 44.3237 25.7466 43.374L20.4475 27.857C20.0867 26.8916 21.4492 26.5057 21.8121 27.4984L24.9518 36.7139C25.9686 39.7043 30.7028 38.535 29.684 35.5154L26.7566 26.9573C24.8632 21.3376 22.4509 18.1072 15.5839 18.1072H14.2408C7.37382 18.1072 4.93592 21.3376 3.04255 26.9573L0.14276 35.5154C-0.876149 38.535 3.85816 39.7043 4.87498 36.7139L8.01463 27.4984C8.34992 26.5057 9.71034 26.8916 9.37922 27.857L4.07809 43.374C3.77047 44.3237 4.22882 45.0349 5.07918 45.0349H9.6176V54.4134C9.6176 55.567 10.6386 56.4997 11.9313 56.4997Z" fill="white"/>
</svg>
