<svg width="80" height="100" viewBox="0 0 80 100" fill="none" xmlns="http://www.w3.org/2000/svg">
<path d="M58.096 17.0722C61.0596 17.0722 63.3986 14.5702 63.3986 11.4766C63.3986 8.40965 61.0596 5.91211 58.096 5.91211C55.1582 5.91211 52.7638 8.40965 52.7638 11.4766C52.7638 14.5702 55.1582 17.0722 58.096 17.0722ZM55.112 64.0011C56.4025 64.0011 57.4236 62.9351 57.4236 61.6168V42.7591C57.4236 42.3782 57.7289 42.0592 58.096 42.0592C58.4889 42.0592 58.7668 42.3782 58.7668 42.7591V61.6168C58.7668 62.9351 59.7876 64.0011 61.0802 64.0011C62.3434 64.0011 63.3919 62.9351 63.3919 61.6168V30.8654C63.3919 30.4822 63.6954 30.1675 64.0603 30.1675C64.4529 30.1675 64.7564 30.4822 64.7564 30.8654V40.9156C64.7564 42.1408 65.6606 43.0848 66.8343 43.0848C67.9762 43.0848 68.9082 42.1408 68.9082 40.9156V29.7086C68.9082 24.0799 64.9536 20.2704 59.6412 20.2704H56.5489C51.2365 20.2704 47.2819 24.0799 47.2819 29.7086V40.9156C47.2819 42.1408 48.2415 43.0848 49.3576 43.0848C50.4996 43.0848 51.4593 42.1408 51.4593 40.9156V30.8654C51.4593 30.4822 51.735 30.1675 52.1277 30.1675C52.4947 30.1675 52.7982 30.4822 52.7982 30.8654V61.6168C52.7982 62.9351 53.8214 64.0011 55.112 64.0011Z" fill="white"/>
<path d="M37.4445 69.9399C37.8697 69.9399 38.1914 69.6085 38.1914 69.1936V0.775438C38.1914 0.360258 37.8697 0 37.4445 0C37.0467 0 36.7253 0.360258 36.7253 0.775438V69.1936C36.7253 69.6085 37.0467 69.9399 37.4445 69.9399Z" fill="white"/>
<path d="M14.9134 17.0722C17.8512 17.0722 20.2437 14.5702 20.2437 11.4766C20.2437 8.40965 17.8512 5.91211 14.9134 5.91211C11.95 5.91211 9.61078 8.40965 9.61078 11.4766C9.61078 14.5702 11.95 17.0722 14.9134 17.0722ZM11.9313 64.0011C13.2218 64.0011 14.2408 62.9351 14.2408 61.6168V50.8984C14.2408 50.5152 14.5207 50.1981 14.9134 50.1981C15.2784 50.1981 15.5839 50.5152 15.5839 50.8984V61.6168C15.5839 62.9351 16.6049 64.0011 17.8955 64.0011C19.1585 64.0011 20.2092 62.9351 20.2092 61.6168V50.8984H24.7476C25.5959 50.8984 26.0563 50.0856 25.7466 49.0002L20.4475 31.2666C20.0867 30.1632 21.4492 29.7222 21.8121 30.8567L24.9518 41.3887C25.9686 44.8063 30.7028 43.4699 29.684 40.0189L26.7566 30.2383C24.8632 23.8158 22.4509 20.1239 15.5839 20.1239H14.2408C7.37382 20.1239 4.93592 23.8158 3.04255 30.2383L0.14276 40.0189C-0.876149 43.4699 3.85816 44.8063 4.87498 41.3887L8.01463 30.8567C8.34992 29.7222 9.71034 30.1632 9.37922 31.2666L4.07809 49.0002C3.77047 50.0856 4.22882 50.8984 5.07918 50.8984H9.6176V61.6168C9.6176 62.9351 10.6386 64.0011 11.9313 64.0011Z" fill="white"/>
</svg>
