<svg  viewBox="0 0 52 47" fill="none" xmlns="http://www.w3.org/2000/svg">
<path d="M25.5008 46.9759C39.6095 46.9759 51.0259 36.4603 51.0259 23.4879C51.0259 10.4929 39.6095 0 25.5008 0C11.4166 0 0 10.4929 0 23.4879C0 36.4603 11.4166 46.9759 25.5008 46.9759ZM25.5008 45.7856C12.1265 45.7856 1.29237 35.8064 1.29237 23.4879C1.29237 11.1467 12.1265 1.16781 25.5008 1.16781C38.8995 1.16781 49.7336 11.1467 49.7336 23.4879C49.7336 35.8064 38.8995 45.7856 25.5008 45.7856Z" fill="white"/>
<path d="M19.9208 39.4132C21.06 39.4132 21.8986 38.8055 21.8722 37.7579L21.5582 22.027C21.5582 21.4745 21.7198 21.2011 22.2425 20.9846C24.1413 20.1412 24.7915 19.2041 24.658 16.825L24.2124 8.4143C24.1861 7.92095 23.8665 7.6024 23.3101 7.6024C22.78 7.6024 22.436 7.92264 22.436 8.46109L22.4942 16.6327C22.4942 17.161 22.1747 17.4536 21.7743 17.4536C21.3213 17.4536 20.9529 17.161 20.9529 16.6795L20.8231 8.22034C20.8231 7.70446 20.4999 7.41016 19.9208 7.41016C19.3889 7.41016 19.0185 7.70446 19.0185 8.22034L18.9096 16.6795C18.9096 17.161 18.5429 17.4536 18.1163 17.4536C17.6425 17.4536 17.323 17.161 17.323 16.6327L17.4056 8.46109C17.4056 7.92264 17.1106 7.6024 16.5315 7.6024C15.9506 7.6024 15.6537 7.92095 15.6274 8.4143L15.2326 16.825C15.1273 19.2041 15.6758 20.1412 17.6254 20.9846C18.1463 21.2011 18.2834 21.4745 18.2834 22.027L17.9694 37.7579C17.9431 38.8055 18.8061 39.4132 19.9208 39.4132ZM29.798 28.3853L29.3088 37.4146C29.2563 38.8055 30.1945 39.4132 31.3073 39.4132C32.4259 39.4132 33.287 38.8087 33.287 37.7179V8.29308C33.287 7.65766 32.9056 7.41016 32.4299 7.41016C31.9488 7.41016 31.6294 7.67851 31.3025 8.12846C28.8094 11.3201 27.3769 16.7985 27.3769 22.8619V23.9861C27.3769 25.1362 27.7717 25.6781 28.5086 26.2531L29.059 26.6527C29.5611 27.0147 29.8223 27.5363 29.798 28.3853Z" fill="white"/>
</svg>
