<svg viewBox="0 0 70 70" fill="none" xmlns="http://www.w3.org/2000/svg">
<path d="M34.3832 69.8913C42.5107 69.8913 43.854 63.5925 50.595 63.5925C57.4708 63.5925 58.4555 69.8913 67.7256 69.8913H67.8968C68.3398 69.8913 68.7344 69.5333 68.7344 69.1021C68.7344 68.7002 68.3398 68.3444 67.8968 68.3444H67.7256C63.5258 68.3444 61.0581 66.6884 58.4934 65.0439C56.2708 63.5856 53.914 62.0456 50.595 62.0456C47.2031 62.0456 44.8125 63.6786 42.5895 65.17C40.23 66.8123 37.9699 68.3444 34.3832 68.3444C30.7648 68.3444 28.5046 66.8123 26.145 65.17C23.9222 63.6786 21.5314 62.0456 18.1394 62.0456C14.8205 62.0456 12.464 63.5856 10.2411 65.0439C7.67631 66.6884 5.21103 68.3444 1.00884 68.3444H0.837849C0.394645 68.3444 0 68.7002 0 69.1021C0 69.5333 0.394645 69.8913 0.837849 69.8913H1.00884C10.2791 69.8913 11.2636 63.5925 18.1394 63.5925C24.8807 63.5925 26.224 69.8913 34.3832 69.8913ZM2.64243 44.5875L13.4437 63.9719L14.8783 63.1322L4.24802 44.049C2.17326 40.3923 3.07266 38.6137 6.44829 37.2034L28.8952 27.7924C30.7275 27.0233 32.2694 26.4403 34.3832 26.4403C36.4652 26.4403 38.007 27.0233 39.8416 27.7924L62.2862 37.2034C65.6619 38.6137 66.5612 40.3923 64.4864 44.049L53.8563 63.1322L55.3078 63.9789L66.092 44.5875C68.5219 40.1931 67.2294 37.5904 62.961 35.8L40.5164 26.3891C38.6668 25.6553 36.808 24.8932 34.3832 24.8932C31.9288 24.8932 30.0702 25.6553 28.2181 26.3891L5.77356 35.8C1.50741 37.5904 0.215089 40.1931 2.64243 44.5875ZM9.3547 34.6378L11.2134 34.2813L14.5863 12.6557C15.0141 9.8875 16.7547 8.36591 19.7986 8.36591H49.036C52.0847 8.36591 53.796 9.90764 54.2534 12.6607L57.5896 34.2924L59.4483 34.6378L55.929 12.4103C55.3501 8.75127 52.9713 6.84772 49.036 6.84772H19.7986C15.8389 6.84772 13.4625 8.73977 12.8764 12.4249L9.3547 34.6378ZM19.9122 21.2469H31.0858C31.6983 21.2469 32.096 20.8348 32.096 20.2922V14.693C32.096 14.1503 31.6983 13.7383 31.0858 13.7383H19.9122C19.314 13.7383 18.9259 14.1503 18.9259 14.693V20.2922C18.9259 20.8348 19.314 21.2469 19.9122 21.2469ZM37.7202 21.2469H48.9281C49.5087 21.2469 49.9066 20.8348 49.9066 20.2922V14.693C49.9066 14.1503 49.5087 13.7383 48.9281 13.7383H37.7202C37.1246 13.7383 36.7362 14.1503 36.7362 14.693V20.2922C36.7362 20.8348 37.1246 21.2469 37.7202 21.2469ZM21.5427 7.46177H23.216V3.90045C23.216 2.40991 24.1988 1.51819 25.7757 1.51819H43.0566C44.6335 1.51819 45.6165 2.40991 45.6165 3.90045V7.46177H47.2896V3.9076C47.2896 1.44184 45.7348 0 43.0489 0H25.7835C23.0977 0 21.5427 1.44184 21.5427 3.9076V7.46177Z" fill="white"/>
</svg>
