<svg width="50" height="50" viewBox="0 0 50 50" fill="none" xmlns="http://www.w3.org/2000/svg">
<path d="M24.52 49.9744C38.086 49.9744 49.0634 38.7876 49.0634 24.9871C49.0634 11.1626 38.086 0 24.52 0C10.9775 0 0 11.1626 0 24.9871C0 38.7876 10.9775 49.9744 24.52 49.9744ZM24.52 48.708C11.6601 48.708 1.24266 38.092 1.24266 24.9871C1.24266 11.8582 11.6601 1.24235 24.52 1.24235C37.4034 1.24235 47.8208 11.8582 47.8208 24.9871C47.8208 38.092 37.4034 48.708 24.52 48.708Z" fill="white"/>
<path d="M19.1546 41.9282C20.2499 41.9282 21.0562 41.2817 21.0309 40.1672L20.729 23.4322C20.729 22.8444 20.8844 22.5535 21.387 22.3232C23.2128 21.4259 23.8379 20.4291 23.7096 17.8981L23.2811 8.95056C23.2558 8.42573 22.9485 8.08684 22.4135 8.08684C21.9038 8.08684 21.573 8.42752 21.573 9.00034L21.629 17.6935C21.629 18.2555 21.3217 18.5668 20.9368 18.5668C20.5012 18.5668 20.1469 18.2555 20.1469 17.7433L20.0221 8.74422C20.0221 8.19541 19.7114 7.88232 19.1546 7.88232C18.6431 7.88232 18.287 8.19541 18.287 8.74422L18.1822 17.7433C18.1822 18.2555 17.8297 18.5668 17.4194 18.5668C16.9639 18.5668 16.6566 18.2555 16.6566 17.6935L16.7361 9.00034C16.7361 8.42752 16.4524 8.08684 15.8956 8.08684C15.3371 8.08684 15.0516 8.42573 15.0263 8.95056L14.6466 17.8981C14.5454 20.4291 15.0728 21.4259 16.9474 22.3232C17.4483 22.5535 17.5801 22.8444 17.5801 23.4322L17.2782 40.1672C17.2529 41.2817 18.0828 41.9282 19.1546 41.9282ZM28.6519 30.1963L28.1815 39.8019C28.131 41.2817 29.0331 41.9282 30.1031 41.9282C31.1786 41.9282 32.0067 41.2851 32.0067 40.1246V8.8216C32.0067 8.14563 31.6399 7.88232 31.1825 7.88232C30.7199 7.88232 30.4128 8.16781 30.0985 8.64648C27.7013 12.0418 26.3239 17.8699 26.3239 24.3204V25.5163C26.3239 26.7398 26.7035 27.3163 27.4121 27.928L27.9413 28.3532C28.4241 28.7382 28.6752 29.2931 28.6519 30.1963Z" fill="white"/>
</svg>
