<svg width="50" height="50" viewBox="0 0 50 50" fill="none" xmlns="http://www.w3.org/2000/svg">
<path d="M24.52 49.9744C38.086 49.9744 49.0634 38.7876 49.0634 24.9871C49.0634 11.1626 38.086 0 24.52 0C10.9775 0 0 11.1626 0 24.9871C0 38.7876 10.9775 49.9744 24.52 49.9744ZM24.52 48.708C11.6601 48.708 1.24266 38.092 1.24266 24.9871C1.24266 11.8582 11.6601 1.24235 24.52 1.24235C37.4034 1.24235 47.8207 11.8582 47.8207 24.9871C47.8207 38.092 37.4034 48.708 24.52 48.708Z" fill="black"/>
<path d="M19.1546 41.9279C20.2499 41.9279 21.0562 41.2814 21.0309 40.1669L20.729 23.4319C20.729 22.8442 20.8844 22.5533 21.387 22.3229C23.2128 21.4257 23.8379 20.4289 23.7096 17.8978L23.2811 8.95032C23.2558 8.42548 22.9485 8.0866 22.4135 8.0866C21.9038 8.0866 21.573 8.42728 21.573 9.0001L21.629 17.6933C21.629 18.2553 21.3217 18.5666 20.9368 18.5666C20.5012 18.5666 20.1469 18.2553 20.1469 17.7431L20.0221 8.74398C20.0221 8.19516 19.7114 7.88208 19.1546 7.88208C18.6431 7.88208 18.287 8.19516 18.287 8.74398L18.1822 17.7431C18.1822 18.2553 17.8297 18.5666 17.4194 18.5666C16.9639 18.5666 16.6566 18.2553 16.6566 17.6933L16.7361 9.0001C16.7361 8.42728 16.4524 8.0866 15.8956 8.0866C15.3371 8.0866 15.0516 8.42548 15.0263 8.95032L14.6466 17.8978C14.5454 20.4289 15.0728 21.4257 16.9474 22.3229C17.4483 22.5533 17.5801 22.8442 17.5801 23.4319L17.2782 40.1669C17.2529 41.2814 18.0828 41.9279 19.1546 41.9279ZM28.6519 30.196L28.1815 39.8017C28.131 41.2814 29.0331 41.9279 30.1031 41.9279C31.1786 41.9279 32.0067 41.2848 32.0067 40.1244V8.82136C32.0067 8.14538 31.6399 7.88208 31.1825 7.88208C30.7199 7.88208 30.4128 8.16757 30.0985 8.64624C27.7013 12.0416 26.3239 17.8697 26.3239 24.3202V25.5161C26.3239 26.7396 26.7035 27.3161 27.4121 27.9277L27.9413 28.3529C28.4241 28.738 28.6752 29.2928 28.6519 30.196Z" fill="black"/>
</svg>
