<?xml version="1.0" encoding="UTF-8"?>
<!--Generator: Apple Native CoreSVG 326-->
<!DOCTYPE svg
PUBLIC "-//W3C//DTD SVG 1.1//EN"
       "http://www.w3.org/Graphics/SVG/1.1/DTD/svg11.dtd">
<svg version="1.1" xmlns="http://www.w3.org/2000/svg" xmlns:xlink="http://www.w3.org/1999/xlink" viewBox="0 0 18.3025 17.332">
 <g>
  <rect height="17.332" opacity="0" width="18.3025" x="0" y="0"/>
  <path d="M15.1284 4.21836C15.8963 4.21836 16.4981 3.59834 16.4981 2.82979C16.4981 2.06191 15.8963 1.45098 15.1284 1.45098C14.3599 1.45098 13.7392 2.06191 13.7392 2.82979C13.7392 3.59834 14.3599 4.21836 15.1284 4.21836ZM14.3446 15.8631C14.6808 15.8631 14.9472 15.5967 14.9472 15.2606L14.9472 10.598C14.9472 10.4976 15.028 10.4174 15.1284 10.4174C15.2274 10.4174 15.3083 10.4976 15.3083 10.598L15.3083 15.2606C15.3083 15.5967 15.5754 15.8631 15.9024 15.8631C16.2288 15.8631 16.5043 15.5967 16.5043 15.2606L16.5043 7.63936C16.5043 7.53897 16.5845 7.45948 16.6849 7.45948C16.7846 7.45948 16.8641 7.53897 16.8641 7.63936L16.8641 10.1356C16.8641 10.4424 17.1019 10.6711 17.4087 10.6711C17.7051 10.6711 17.9429 10.4424 17.9429 10.1356L17.9429 7.35342C17.9429 5.9544 16.9184 5.01006 15.537 5.01006L14.7185 5.01006C13.328 5.01006 12.3035 5.9544 12.3035 7.35342L12.3035 10.1356C12.3035 10.4424 12.5504 10.6711 12.8475 10.6711C13.1445 10.6711 13.3914 10.4424 13.3914 10.1356L13.3914 7.63936C13.3914 7.53897 13.4716 7.45948 13.5706 7.45948C13.6619 7.45948 13.7421 7.53897 13.7421 7.63936L13.7421 15.2606C13.7421 15.5967 14.0092 15.8631 14.3446 15.8631Z" fill="white"/>
  <path d="M9.73114 17.3223C9.85907 17.3223 9.95292 17.2291 9.95292 17.1109L9.95292 0.211332C9.95292 0.0931656 9.85907 0 9.73114 0C9.61297 0 9.51844 0.0931656 9.51844 0.211332L9.51844 17.1109C9.51844 17.2291 9.61297 17.3223 9.73114 17.3223Z" fill="white"/>
  <path d="M3.86219 4.21836C4.63074 4.21836 5.25076 3.59834 5.25076 2.82979C5.25076 2.06191 4.63074 1.45098 3.86219 1.45098C3.09432 1.45098 2.48269 2.06191 2.48269 2.82979C2.48269 3.59834 3.09432 4.21836 3.86219 4.21836ZM3.07908 15.8631C3.41521 15.8631 3.68162 15.5967 3.68162 15.2606L3.68162 12.5938C3.68162 12.494 3.76248 12.4139 3.86219 12.4139C3.96189 12.4139 4.04275 12.494 4.04275 12.5938L4.04275 15.2606C4.04275 15.5967 4.30916 15.8631 4.64529 15.8631C4.96258 15.8631 5.23875 15.5967 5.23875 15.2606L5.23875 12.5938L6.3908 12.5938C6.62772 12.5938 6.73992 12.3791 6.66746 12.1065L5.29822 7.73633C5.20897 7.45811 5.55828 7.34864 5.64822 7.63663L6.46424 10.237C6.72928 11.0789 7.95203 10.7462 7.68631 9.89522L6.93026 7.48106C6.43582 5.89922 5.81903 4.97373 4.04275 4.97373L3.68162 4.97373C1.90535 4.97373 1.27947 5.89922 0.794119 7.48106L0.03738 9.89522C-0.227659 10.7462 0.994411 11.0789 1.26013 10.237L2.07615 7.63663C2.15701 7.34864 2.51541 7.45811 2.42615 7.73633L1.05623 12.1065C0.975369 12.3791 1.09598 12.5938 1.33357 12.5938L2.48562 12.5938L2.48562 15.2606C2.48562 15.5967 2.74363 15.8631 3.07908 15.8631Z" fill="white"/>
 </g>
</svg>
