<svg width="52" height="47" viewBox="0 0 52 47" fill="none" xmlns="http://www.w3.org/2000/svg">
<path d="M26.627 42.2666C29.947 42.2666 39.2817 30.9795 39.2817 26.8322C39.2817 24.5032 33.5476 19.8987 30.6222 19.8987C29.3325 19.8987 27.2286 21.6408 25.6795 21.6408C24.1058 21.6408 20.3206 18.858 20.3206 17.5573C20.3206 16.8109 21.295 16.1073 22.1054 16.1073C23.2483 16.1073 25.5442 18.3884 27.1076 18.3884C28.9654 18.3884 30.1069 17.2974 30.1069 15.5413C30.1069 14.8297 29.7538 14.1407 28.7964 13.0064C31.7278 11.5913 38.2023 8.58981 39.5251 4.36499C35.5194 1.84589 30.2573 0.409239 25.4971 0.409239C17.4238 0.409239 10.8283 4.02121 6.85655 8.09649C5.51445 11.4987 7.00815 15.3689 11.6232 19.1157L15.7842 22.5327C16.7992 23.3689 17.5098 23.7619 17.5098 24.3922C17.5098 25.1191 16.785 26.2747 16.785 27.608C16.785 28.8202 17.4167 29.84 18.7609 30.7613C22.5842 33.426 24.1737 34.1762 24.1737 35.1858C24.2 36.831 23.149 38.0658 23.149 39.5446C23.149 40.8327 25.0178 42.2666 26.627 42.2666ZM25.5008 46.9759C39.6095 46.9759 51.0259 36.4603 51.0259 23.4879C51.0259 10.4929 39.6095 0 25.5008 0C11.4166 0 0 10.4929 0 23.4879C0 36.4603 11.4166 46.9759 25.5008 46.9759ZM25.5008 45.7756C12.1178 45.7756 1.30315 35.8146 1.30315 23.4879C1.30315 11.1613 12.1178 1.20029 25.5008 1.20029C38.8839 1.20029 49.7228 11.1613 49.7228 23.4879C49.7228 35.8146 38.8839 45.7756 25.5008 45.7756Z" fill="white"/>
</svg>
