<?xml version="1.0" encoding="utf-8"?>
<svg width="24" height="24" viewBox="1.208 0.05 24 24" xmlns="http://www.w3.org/2000/svg">
  <path d="M 6.548 1.88 L 7.799 2.137 L 9.351 2.745 L 10.851 3.252 L 12.252 3.457 L 13.851 2.745 L 15.351 1.73 L 16.851 0.716 L 18.4 0.05 L 20.066 0.716 L 21.78 1.73 L 23.592 2.243 L 25.208 3.759 L 24.813 5.638 L 24.516 7.768 L 25.208 9.846 L 24.71 11.625 L 24.103 13.701 L 23.591 15.377 L 22.636 17.202 L 22.32 18.877 L 20.506 20.544 L 18.694 21.912 L 16.636 22.782 L 14.922 24.05 L 13.207 23.289 L 11.493 22.528 L 9.779 21.767 L 8.065 21.256 L 6.779 21.768 L 5.493 22.529 L 4.207 23.29 L 3.07 23.399 L 2.493 22.022 L 2.458 19.742 L 1.636 17.964 L 1.208 15.934 L 1.208 13.652 L 1.208 11.369 L 1.208 9.087 L 1.208 6.804 L 2.493 5.536 L 3.433 4.167 L 4.816 2.797 L 6.548 1.88 Z" fill="#a0a0a0"/>
  <circle cx="14.693" cy="11.166" r="1.978" fill="#FF5757" stroke="#DC4747" stroke-width="1.5" style="transform-box: fill-box; transform-origin: 50% 50%;"/>
</svg>